<?xml version="1.0" encoding="utf-8"?>
<!-- Generator: Adobe Illustrator 22.0.1, SVG Export Plug-In . SVG Version: 6.00 Build 0)  -->
<svg version="1.1" id="Layer_1" xmlns="http://www.w3.org/2000/svg" xmlns:xlink="http://www.w3.org/1999/xlink" x="0px" y="0px"
	 viewBox="0 0 224.9 262.2" style="enable-background:new 0 0 224.9 262.2;" xml:space="preserve">
<style type="text/css">
	.st0{fill:#61BB46;}
	.st1{fill:#FDB827;}
	.st2{fill:#F5821F;}
	.st3{fill:#E03A3E;}
	.st4{fill:#963D97;}
	.st5{fill:#009DDC;}
</style>
<g>
	<path class="st0" d="M214,88.9c-13-16.3-31.4-26-49.1-26c-12.6,0-21.3,3.3-29,6.2c-6.3,2.4-12.2,4.7-19.3,4.7
		c-7.6,0-14.4-2.4-21.6-5c-8.1-2.9-16.4-5.9-26.8-5.9c-20.2,0-40.7,12.4-53.7,32.3c-0.1,0.1-0.2,0.3-0.2,0.4l-0.7,1.1h190.3l0.2-0.2
		c2.9-2.5,6.1-4.7,9.6-6.6l0.7-0.4L214,88.9z"/>
	<path class="st0" d="M160.6,4.1l-0.1-0.7l-0.7,0c-13.6,0.9-29.7,9.6-39.1,21.1c-10.3,12.6-15.1,27.9-12.8,40.7L108,66h1.6
		c13.7,0,29-8,38.4-20.2C158.1,33,162.6,17.8,160.6,4.1L160.6,4.1z"/>
	<path class="st1" d="M14.1,95.7c-5.6,8.8-9.5,21.6-10.6,32.7h182.6c2-12.2,8.5-23.8,18.9-32.7L14.1,95.7L14.1,95.7z"/>
	<path class="st2" d="M190.3,160.5c-4.5-10.1-5.9-21.2-4.1-32l0.1-0.8H3.8l0,0.6c-1.1,10.3-0.8,21.2,0.9,32.6l0.1,0.6h186
		L190.3,160.5L190.3,160.5z"/>
	<path class="st3" d="M221,189.7c-13.8-5.3-24.8-15.6-30.8-29.2l-0.2-0.4H4.4l0.1,0.8c1.7,10.9,4.7,21.8,8.9,32.5l0.2,0.4H220
		l0.4-0.8c0.4-0.8,0.7-1.6,1.1-2.4l0.3-0.7L221,189.7L221,189.7z"/>
	<path class="st4" d="M13.1,192.5l0.4,0.9c4.1,10.4,9.4,20.6,15.5,30.1c0.5,0.8,1.1,1.6,1.6,2.4l0.2,0.3h171l0.2-0.3
		c1.1-1.6,2.2-3.3,3-4.4c6.9-10.6,9.9-16.3,15.2-28l0.5-1H13.1z"/>
	<path class="st5" d="M29.9,224.9l0.7,1.1c10.1,15.1,24.1,32.5,42.5,32.7h0.4c7.7,0,12.8-2.3,18.3-4.8c6.5-2.9,13.2-5.9,25-6h0.4
		c11.7,0,18.2,3,24.5,5.9c5.4,2.5,10.4,4.8,18.1,4.8h0.3c17.6-0.2,31.7-17.5,41.9-32.6l0.7-1.1L29.9,224.9L29.9,224.9z"/>
</g>
</svg>
