<?xml version="1.0" encoding="utf-8"?>
<!-- Generator: Adobe Illustrator 22.0.1, SVG Export Plug-In . SVG Version: 6.00 Build 0)  -->
<svg version="1.1" id="Layer_1" xmlns="http://www.w3.org/2000/svg" xmlns:xlink="http://www.w3.org/1999/xlink" x="0px" y="0px"
	 viewBox="0 0 262.2 220.3" style="enable-background:new 0 0 262.2 220.3;" xml:space="preserve">
<style type="text/css">
	.st0{fill:#364548;}
	.st1{fill:#22A0C8;}
	.st2{fill:#37B1D9;}
	.st3{fill:#1B81A5;}
	.st4{fill:#1D91B4;}
	.st5{fill:#23A3C2;}
	.st6{fill:#34BBDE;}
	.st7{fill:#D3ECEC;}
	.st8{fill:#BDD9D7;}
</style>
<g>
	<path class="st0" d="M42.1,176.7v-16.3c0-2.1,1.3-3.9,3.6-3.9h0.6c2.2,0,3.6,1.7,3.6,3.9v34.4c0,8.4-4.1,15.1-11.4,19.3
		c-3.3,2-7.1,3-10.9,3H26c-8.4,0-15-4.1-19.3-11.4c-2-3.3-3-7.1-3-10.9v-1.5c0-8.4,4.1-15,11.4-19.3c3.3-2,7.1-3,10.9-3h1.5
		C33.2,170.9,38,173.1,42.1,176.7L42.1,176.7z M11.4,194c0,6.1,2.9,10.6,8.2,13.5c2.1,1.2,4.5,1.8,6.9,1.8c5.9,0,10.4-2.8,13.4-7.8
		c1.4-2.3,2.1-4.9,2.1-7.6c0-5.2-2.5-9.3-6.7-12.4c-2.6-1.8-5.5-2.8-8.6-2.8c-6.5,0-11.1,3.3-13.9,9.1
		C11.9,189.7,11.4,191.8,11.4,194L11.4,194z M76.6,170.9h1.1c9,0,15.8,4.3,20.1,12.2c1.7,3.1,2.7,6.5,2.7,10.1v1.5
		c0,8.4-4.1,15.1-11.4,19.3c-3.3,2-7,3-10.9,3h-1.5c-8.4,0-15-4.1-19.3-11.4c-2-3.3-3-7.1-3-10.9v-1.5c0-8.4,4.2-15,11.4-19.3
		C69,171.9,72.7,170.9,76.6,170.9L76.6,170.9z M62.1,194c0,5.9,2.9,10.2,7.8,13.2c2.3,1.4,4.9,2.1,7.6,2.1c5.8,0,10.1-2.9,13.1-7.8
		c1.4-2.3,2.1-4.9,2.1-7.6c0-5.5-2.6-9.6-7.1-12.7c-2.5-1.7-5.2-2.5-8.2-2.5c-6.5,0-11.1,3.3-13.9,9.1
		C62.5,189.7,62.1,191.8,62.1,194L62.1,194z M132.6,179.3c-1.2-0.5-3.4-0.7-4.6-0.8c-6.5-0.2-11.1,3.4-13.9,9.1
		c-0.9,2-1.4,4-1.4,6.2c0,6.6,3.5,11.3,9.4,14.1c2.2,1,4.9,1.2,7.3,1.2c2.1,0,5-1.3,6.9-2.1l0.3-0.2h1.4l0.2,0
		c1.8,0.4,3.1,1.5,3.1,3.4v0.8c0,4.7-8.6,5.8-11.9,6c-11.6,0.8-20.2-5.6-23.6-16.6c-0.6-1.9-0.8-3.8-0.8-5.8v-1.5
		c0-8.4,4.2-15,11.4-19.3c3.3-2,7-3,10.9-3h1.5c4.1,0,7.9,1.2,11.3,3.5l0.3,0.2l0.2,0.3c0.4,0.6,0.7,1.3,0.7,2v0.8
		c0,2-1.5,3-3.3,3.4l-0.1,0h-0.5C136.2,181,133.6,179.8,132.6,179.3L132.6,179.3z M157.7,184.5c3-3,6-6,9.1-9
		c0.8-0.8,4.1-4.3,5.3-4.3h1.4l0.2,0c1.8,0.4,3.1,1.5,3.1,3.4v0.8c0,1.3-1.5,2.8-2.3,3.7c-1.8,1.9-3.6,3.7-5.5,5.5l-9.3,9.5
		c4,4,8,8.1,12,12.1c1.1,1.1,2.2,2.3,3.3,3.4c0.4,0.4,1,0.9,1.3,1.5c0.3,0.5,0.6,1.1,0.6,1.7v0.8l0,0.2c-0.4,1.8-1.6,3.2-3.5,3.2
		h-0.6c-1.3,0-2.7-1.4-3.6-2.3c-1.8-1.7-3.5-3.5-5.3-5.2l-5.9-5.8v9.3c0,2.1-1.3,3.9-3.6,3.9h-0.6c-2.2,0-3.6-1.7-3.6-3.9v-52.5
		c0-2.1,1.3-3.9,3.6-3.9h0.6c2.2,0,3.6,1.7,3.6,3.9V184.5L157.7,184.5z M254,171.2h0.8c2.3,0,3.9,1.6,3.9,3.9c0,3.2-3.1,4-5.7,4
		c-3.5,0-6.8,2.1-9.2,4.5c-3,2.9-4.3,6.7-4.3,10.9v18.7c0,2.1-1.3,3.9-3.6,3.9h-0.6c-2.2,0-3.6-1.7-3.6-3.9v-19.8
		c0-7.6,3.7-13.8,9.9-18.2C245.3,172.6,249.5,171.2,254,171.2L254,171.2z M199.1,208.3c2.8,1,6,0.8,8.9,0.3c1.5-0.6,5.3-2.3,6.6-2
		l0.2,0l0.2,0.1c0.8,0.4,1.7,1,2.1,1.9c1,2,0.5,4.1-1.5,5.2l-0.7,0.4c-7.3,4.2-15.1,3.6-22.4-0.3c-3.5-1.9-6.2-4.7-8.1-8.1L184,205
		c-4.7-8.2-4.1-16.7,1.2-24.5c1.8-2.7,4.2-4.8,7-6.4l1.1-0.6c6.9-4,14.3-3.7,21.4-0.2c3.8,1.9,6.9,4.7,9,8.4l0.4,0.7
		c1.5,2.7-0.5,5-2.5,6.6c-2.4,1.9-4.8,4.1-7.1,6.1C209.3,199.5,204.2,203.9,199.1,208.3L199.1,208.3z M192.4,203.7
		c5.7-4.9,11.5-9.8,17.2-14.8c2-1.7,4.1-3.4,6-5.2c-1.6-2-4.2-3.4-6.4-4.2c-4.5-1.7-8.9-1.1-12.9,1.2c-5.4,3.1-7.6,8-7.4,14.1
		c0.1,2.4,0.7,4.7,2,6.8C191.4,202.3,191.9,203,192.4,203.7z M150.7,48.7h22.8v23.3h11.5c5.3,0,10.8-0.9,15.9-2.7
		c2.5-0.8,5.3-2,7.7-3.5c-3.2-4.2-4.9-9.5-5.3-14.7c-0.7-7.1,0.8-16.4,5.6-22l2.4-2.8l2.9,2.3c7.2,5.8,13.2,13.9,14.3,23.1
		c8.7-2.5,18.8-1.9,26.5,2.5l3.1,1.8l-1.6,3.2c-6.5,12.6-20,16.5-33.2,15.8c-19.8,49.2-62.8,72.5-114.9,72.5
		c-26.9,0-51.7-10.1-65.7-34l-0.2-0.4l-2.1-4.2C35.6,98.6,34,87,35,75.5l0.3-3.4h19.5V48.7h22.8V25.9h45.6V3.1h27.4V48.7"/>
	<path class="st1" d="M224.6,57.4c1.5-11.9-7.4-21.2-12.9-25.7c-6.4,7.4-7.3,26.6,2.6,34.7c-5.6,4.9-17.3,9.4-29.3,9.4H38.8
		c-1.2,12.5,1,24.1,6.1,34l1.7,3c1.1,1.8,2.2,3.5,3.4,5.2c6,0.4,11.6,0.5,16.6,0.4h0c10-0.2,18.1-1.4,24.3-3.5
		c0.9-0.3,1.9,0.2,2.2,1.2c0.3,0.9-0.2,1.8-1,2.2c-0.8,0.3-1.7,0.6-2.6,0.8h0c-4.9,1.4-10.1,2.3-16.8,2.7c0.4,0-0.4,0.1-0.4,0.1
		c-0.2,0-0.5,0-0.7,0.1c-2.6,0.1-5.5,0.2-8.4,0.2c-3.2,0-6.3-0.1-9.8-0.2l-0.1,0.1c12.2,13.7,31.2,21.9,55.1,21.9
		c50.5,0,93.4-22.4,112.4-72.7c13.5,1.4,26.4-2.1,32.3-13.5C243.6,52.2,231.6,53.9,224.6,57.4"/>
	<path class="st2" d="M224.6,57.4c1.5-11.9-7.4-21.2-12.9-25.7c-6.4,7.4-7.3,26.6,2.6,34.7c-5.6,4.9-17.3,9.4-29.3,9.4H47.5
		c-0.6,19.2,6.5,33.8,19.1,42.6h0c10-0.2,18.1-1.4,24.3-3.5c0.9-0.3,1.9,0.2,2.2,1.2c0.3,0.9-0.2,1.8-1,2.2
		c-0.8,0.3-1.7,0.6-2.6,0.8h0c-4.9,1.4-10.5,2.4-17.2,2.9c0,0-0.2-0.2-0.2-0.2c17.2,8.8,42.1,8.8,70.7-2.2
		c32.1-12.3,61.9-35.8,82.7-62.6C225.2,57.1,224.9,57.2,224.6,57.4"/>
	<path class="st3" d="M39.1,91.1c0.9,6.7,2.9,13,5.8,18.7l1.7,3c1.1,1.8,2.2,3.5,3.4,5.2c6,0.4,11.6,0.5,16.6,0.4
		c10-0.2,18.1-1.4,24.3-3.5c0.9-0.3,1.9,0.2,2.2,1.2c0.3,0.9-0.2,1.8-1,2.2c-0.8,0.3-1.7,0.6-2.6,0.8h0c-4.9,1.4-10.5,2.4-17.2,2.8
		c-0.2,0-0.6,0-0.9,0c-2.6,0.1-5.5,0.2-8.4,0.2c-3.2,0-6.4-0.1-10-0.2c12.2,13.7,31.4,21.9,55.2,21.9c43.3,0,80.9-16.4,102.8-52.7
		H39.1"/>
	<path class="st4" d="M48.8,91.1c2.6,11.8,8.8,21.1,17.8,27.4c10-0.2,18.1-1.4,24.3-3.5c0.9-0.3,1.9,0.2,2.2,1.2
		c0.3,0.9-0.2,1.8-1,2.2c-0.8,0.3-1.7,0.6-2.6,0.8h0c-4.9,1.4-10.6,2.4-17.3,2.8c17.2,8.8,42.1,8.7,70.7-2.3
		c17.3-6.6,33.9-16.5,48.9-28.5H48.8"/>
	<path class="st5" d="M58.7,52.5h19.8v19.8H58.7V52.5z M60.3,54.2h1.6v16.5h-1.6V54.2z M63.3,54.2h1.6v16.5h-1.6L63.3,54.2
		L63.3,54.2z M66.3,54.2h1.6v16.5h-1.6V54.2z M69.3,54.2h1.6v16.5h-1.6V54.2z M72.3,54.2h1.6v16.5h-1.6L72.3,54.2L72.3,54.2z
		 M75.2,54.2h1.6v16.5h-1.6V54.2z M81.5,29.7h19.8v19.8H81.5L81.5,29.7L81.5,29.7z M83.1,31.4h1.6v16.5h-1.6V31.4z M86.1,31.4h1.6
		v16.5h-1.6L86.1,31.4L86.1,31.4z M89.1,31.4h1.6v16.5h-1.6V31.4z M92.1,31.4h1.6v16.5h-1.6V31.4z M95.1,31.4h1.6v16.5h-1.6V31.4z
		 M98.1,31.4h1.6v16.5h-1.6V31.4z"/>
	<path class="st6" d="M81.5,52.5h19.8v19.8H81.5L81.5,52.5L81.5,52.5z M83.1,54.2h1.6v16.5h-1.6V54.2z M86.1,54.2h1.6v16.5h-1.6
		L86.1,54.2L86.1,54.2z M89.1,54.2h1.6v16.5h-1.6V54.2z M92.1,54.2h1.6v16.5h-1.6V54.2z M95.1,54.2h1.6v16.5h-1.6V54.2z M98.1,54.2
		h1.6v16.5h-1.6V54.2z"/>
	<path class="st5" d="M104.3,52.5h19.8v19.8h-19.8V52.5z M106,54.2h1.6v16.5H106V54.2z M108.9,54.2h1.6v16.5h-1.6V54.2z M111.9,54.2
		h1.6v16.5h-1.6V54.2z M114.9,54.2h1.6v16.5h-1.6V54.2z M117.9,54.2h1.6v16.5h-1.6V54.2z M120.9,54.2h1.6v16.5h-1.6V54.2z"/>
	<path class="st6" d="M104.3,29.7h19.8v19.8h-19.8V29.7z M106,31.4h1.6v16.5H106V31.4z M108.9,31.4h1.6v16.5h-1.6V31.4z M111.9,31.4
		h1.6v16.5h-1.6V31.4z M114.9,31.4h1.6v16.5h-1.6V31.4z M117.9,31.4h1.6v16.5h-1.6V31.4z M120.9,31.4h1.6v16.5h-1.6V31.4z
		 M127.1,52.5h19.8v19.8h-19.8V52.5z M128.8,54.2h1.6v16.5h-1.6V54.2z M131.7,54.2h1.6v16.5h-1.6V54.2z M134.7,54.2h1.6v16.5h-1.6
		V54.2z M137.7,54.2h1.6v16.5h-1.6V54.2z M140.7,54.2h1.6v16.5h-1.6V54.2z M143.7,54.2h1.6v16.5h-1.6V54.2z"/>
	<path class="st5" d="M127.1,29.7h19.8v19.8h-19.8V29.7z M128.8,31.4h1.6v16.5h-1.6V31.4z M131.7,31.4h1.6v16.5h-1.6V31.4z
		 M134.7,31.4h1.6v16.5h-1.6V31.4z M137.7,31.4h1.6v16.5h-1.6V31.4z M140.7,31.4h1.6v16.5h-1.6V31.4z M143.7,31.4h1.6v16.5h-1.6
		V31.4z"/>
	<path class="st6" d="M127.1,6.9h19.8v19.8h-19.8V6.9z M128.8,8.6h1.6V25h-1.6V8.6L128.8,8.6z M131.7,8.6h1.6V25h-1.6V8.6L131.7,8.6
		z M134.7,8.6h1.6V25h-1.6V8.6L134.7,8.6z M137.7,8.6h1.6V25h-1.6V8.6L137.7,8.6z M140.7,8.6h1.6V25h-1.6V8.6L140.7,8.6z M143.7,8.6
		h1.6V25h-1.6V8.6L143.7,8.6z"/>
	<path class="st5" d="M149.9,52.5h19.8v19.8h-19.8V52.5z M151.6,54.2h1.6v16.5h-1.6L151.6,54.2L151.6,54.2z M154.5,54.2h1.6v16.5
		h-1.6L154.5,54.2L154.5,54.2z M157.5,54.2h1.6v16.5h-1.6V54.2z M160.5,54.2h1.6v16.5h-1.6V54.2z M163.5,54.2h1.6v16.5h-1.6V54.2z
		 M166.5,54.2h1.6v16.5h-1.6V54.2z"/>
	<path class="st7" d="M100,104.4c3,0,5.5,2.4,5.5,5.4s-2.4,5.5-5.4,5.5c0,0-0.1,0-0.1,0c-3,0-5.4-2.5-5.4-5.5
		C94.7,106.8,97.1,104.4,100,104.4"/>
	<path class="st0" d="M100,105.9c0.5,0,1,0.1,1.4,0.3c-0.8,0.4-1,1.4-0.6,2.2c0.3,0.5,0.8,0.8,1.4,0.8c0.6,0,1.1-0.3,1.4-0.8
		c0.8,2-0.1,4.3-2.1,5.1c-2,0.8-4.3-0.1-5.1-2.1c-0.8-2,0.1-4.3,2.1-5.1C99,106,99.5,105.9,100,105.9 M3.5,93.1h253.8
		c-5.5-1.4-17.5-3.3-15.5-10.5c-10,11.6-34.3,8.2-40.4,2.4c-6.8,9.9-46.5,6.1-49.2-1.6c-8.5,10-35,10-43.5,0
		c-2.8,7.7-42.4,11.4-49.2,1.6c-6.1,5.7-30.3,9.2-40.4-2.4C21,89.8,9.1,91.7,3.5,93.1"/>
	<path class="st8" d="M114.5,143.7c-13.5-6.4-20.9-15.1-25.1-24.6c-5,1.4-11.1,2.3-18.1,2.7c-2.6,0.1-5.4,0.2-8.3,0.2
		c-3.4,0-6.9-0.1-10.6-0.3c12.4,12.4,27.6,21.9,55.9,22.1C110.4,143.8,112.5,143.8,114.5,143.7"/>
	<path class="st7" d="M94.5,127.8c-1.9-2.5-3.7-5.7-5-8.8c-5,1.4-11.1,2.3-18.1,2.7C76.2,124.4,83.1,126.8,94.5,127.8"/>
</g>
</svg>
